<svg width="23" height="24" viewBox="0 0 23 24" fill="none" xmlns="http://www.w3.org/2000/svg">
<path d="M23 4.85849L17.71 0.419495L16.2265 2.17899L21.5165 6.61799L23 4.85849ZM6.762 2.17899L5.29 0.419495L0 4.84699L1.4835 6.60649L6.762 2.17899ZM12.075 7.48049H10.35V14.3805L15.8125 17.658L16.675 16.2435L12.075 13.518V7.48049ZM11.5 2.88049C5.7845 2.88049 1.15 7.515 1.15 13.2305C1.15 18.946 5.773 23.5805 11.5 23.5805C17.2155 23.5805 21.85 18.946 21.85 13.2305C21.85 7.515 17.2155 2.88049 11.5 2.88049ZM11.5 21.2805C7.0495 21.2805 3.45 17.681 3.45 13.2305C3.45 8.77999 7.0495 5.18049 11.5 5.18049C15.9505 5.18049 19.55 8.77999 19.55 13.2305C19.55 17.681 15.9505 21.2805 11.5 21.2805Z" fill="white"/>
</svg>
