<svg width="28" height="32" viewBox="0 0 28 32" fill="none" xmlns="http://www.w3.org/2000/svg">
<path d="M27.8854 7.81427L14.5746 0.141832C14.2251 -0.0472773 13.7948 -0.0472773 13.4452 0.141832L0.188233 7.81427C0.107561 7.8683 0.0537802 7.94934 0.0537802 8.05741V9.70536C0.0537802 9.81342 0.107561 9.89447 0.188233 9.9485L22.83 23.1051L20.141 24.672L0.457138 13.2444C0.376466 13.1904 0.268905 13.1904 0.161343 13.2444C0.0806711 13.2984 0.0268901 13.3795 0.0268901 13.4875V16.8375C0.0268901 16.9455 0.0806711 17.0266 0.161343 17.0806L16.6721 26.6442L13.9831 28.2111L0.430248 20.3495C0.295795 20.2685 0.107562 20.3225 0.0268901 20.4576C-4.09782e-07 20.5116 0 20.5386 0 20.5927V23.9426C0 24.0507 0.0537806 24.1317 0.161343 24.1857L13.4184 31.8582C13.7679 32.0473 14.1982 32.0473 14.5478 31.8582L27.8317 24.1857C27.9123 24.1317 27.9661 24.0507 27.9661 23.9426V22.2676C27.9661 22.1596 27.9123 22.0785 27.8317 22.0245L5.16297 8.86788L7.90581 7.27396L27.5359 18.6745C27.6703 18.7556 27.8586 18.7016 27.9392 18.5665C27.9661 18.5125 27.9661 18.4854 27.9661 18.4314V15.0815C27.9661 14.9734 27.9123 14.8924 27.8317 14.8383L11.4016 5.30181L14.0099 3.78894L27.5628 11.6505C27.6972 11.7315 27.8854 11.6775 27.9661 11.5424C27.993 11.4884 27.993 11.4614 27.993 11.4073V8.05741C28.0199 7.94934 27.9661 7.8683 27.8854 7.81427Z" fill="white"/>
</svg>
