<?xml version="1.0" encoding="utf-8"?>
<!-- Generator: Adobe Illustrator 24.2.3, SVG Export Plug-In . SVG Version: 6.00 Build 0)  -->
<svg version="1.1" id="Capa_1" xmlns="http://www.w3.org/2000/svg" xmlns:xlink="http://www.w3.org/1999/xlink" x="0px" y="0px"
	 viewBox="0 0 28 32" style="enable-background:new 0 0 28 32;" xml:space="preserve">
<path d="M27.9,7.8L14.6,0.1c-0.3-0.2-0.8-0.2-1.1,0L0.2,7.8C0.1,7.9,0.1,7.9,0.1,8.1v1.6c0,0.1,0.1,0.2,0.1,0.2l22.6,13.2l-2.7,1.6
	L0.5,13.2c-0.1-0.1-0.2-0.1-0.3,0C0.1,13.3,0,13.4,0,13.5v3.3c0,0.1,0.1,0.2,0.1,0.2l16.5,9.6L14,28.2L0.4,20.3
	c-0.1-0.1-0.3,0-0.4,0.1c0,0.1,0,0.1,0,0.1v3.3c0,0.1,0.1,0.2,0.2,0.2l13.3,7.7c0.3,0.2,0.8,0.2,1.1,0l13.3-7.7
	c0.1-0.1,0.1-0.1,0.1-0.2v-1.7c0-0.1-0.1-0.2-0.1-0.2L5.2,8.9l2.7-1.6l19.6,11.4c0.1,0.1,0.3,0,0.4-0.1c0-0.1,0-0.1,0-0.1v-3.3
	c0-0.1-0.1-0.2-0.1-0.2L11.4,5.3L14,3.8l13.6,7.9c0.1,0.1,0.3,0,0.4-0.1c0-0.1,0-0.1,0-0.1V8.1C28,7.9,28,7.9,27.9,7.8z"/>
</svg>
